<?xml version="1.0" encoding="utf-8"?>
<!-- Generator: Adobe Illustrator 24.2.1, SVG Export Plug-In . SVG Version: 6.00 Build 0)  -->
<svg version="1.1" id="圖層_1" xmlns="http://www.w3.org/2000/svg" xmlns:xlink="http://www.w3.org/1999/xlink" x="0px" y="0px"
	 viewBox="0 0 79.2 122.5" style="enable-background:new 0 0 79.2 122.5;" xml:space="preserve">
<style type="text/css">
	.st0{fill:none;}
	.st1{fill:#56B688;}
	.st2{fill:#FDB515;}
	.st3{fill:#FFFFFF;}
</style>
<g id="圖層_2_1_">
	<g id="圖層_2-2">
		<path class="st0" d="M51.6,33.9c0.9,0,1.7,0.5,2,1.4h20l-18.7-9c-2.6,3.9-11,4.9-14.1,5.2v9.2C51,41.5,54,44.2,55,45.7l18.6-8.9
			h-20c-0.4,1.1-1.7,1.6-2.8,1.2c-1.1-0.4-1.6-1.7-1.2-2.8C49.9,34.4,50.7,33.9,51.6,33.9L51.6,33.9z"/>
		<path class="st0" d="M40.8,2.4v27.4c4-0.3,11.6-1.6,13.1-5l0.3-0.7l22.3,10.8C74.2,16.7,59.1,3,40.8,2.4z"/>
		<path class="st1" d="M26.4,42.1v-2.2h-7.2v7.2h7.2v-2.6h12v32c-20.5-0.6-36.7-17.8-36-38.4C3,20.6,15.6,5.9,32.8,2.7V0.3
			C11.3,4-3.1,24.5,0.6,46.1c3.3,19,19.8,32.8,39,32.8h1.2V42.1H26.4z M24.1,44.8h-2.5v-2.5h2.5V44.8z"/>
		<path class="st0" d="M40.8,2.4v27.4c4-0.3,11.6-1.6,13.1-5l0.3-0.7l22.3,10.8C74.2,16.7,59.1,3,40.8,2.4z"/>
		<path class="st0" d="M51.6,33.9c0.9,0,1.7,0.5,2,1.4h20l-18.7-9c-2.6,3.9-11,4.9-14.1,5.2v9.2C51,41.5,54,44.2,55,45.7l18.6-8.9
			h-20c-0.4,1.1-1.7,1.6-2.8,1.2c-1.1-0.4-1.6-1.7-1.2-2.8C49.9,34.4,50.7,33.9,51.6,33.9L51.6,33.9z"/>
		<path class="st2" d="M79.2,39.6C79.2,17.7,61.5,0,39.6,0h-1.2v42.1h2.4c12,1.1,13,4.7,13,4.8l0.2,1l22.8-10.8
			c0.1,0.8,0.1,1.7,0.1,2.5c0,17.9-12.8,33.3-30.5,36.6v2.4C65.3,75.3,79.2,58.8,79.2,39.6z M51.6,38.2c0.9,0,1.7-0.5,2-1.4h20
			L55,45.7c-0.9-1.5-4-4.2-14.2-5.2v-9.2c3.2-0.3,11.5-1.3,14.2-5.2l18.7,9h-20c-0.4-1.1-1.7-1.6-2.8-1.2c-1.1,0.4-1.6,1.7-1.2,2.8
			C50,37.6,50.8,38.1,51.6,38.2L51.6,38.2z M54.2,24.1l-0.3,0.7c-1.5,3.3-9.1,4.6-13.1,5V2.4C59.1,3,74.2,16.7,76.5,34.9L54.2,24.1z
			"/>
		<path class="st1" d="M10.6,110.4c-0.9,0-1.6-0.7-1.7-1.6c0,0,0,0,0,0V95.8c0-0.9,0.7-1.6,1.6-1.6c0,0,0,0,0,0h7.2c0.6,0,1,0.4,1,1
			s-0.4,1-1,1h-6.4c-0.2,0-0.3,0.1-0.3,0.3v11.8c0,0.2,0.1,0.3,0.3,0.3c0,0,0,0,0,0h5.3c0.2,0,0.3-0.1,0.3-0.3c0,0,0,0,0,0v-5.8
			c0-0.2-0.1-0.3-0.3-0.3c0,0,0,0,0,0h-1.9c-0.5-0.2-0.8-0.7-0.7-1.3c0.1-0.3,0.3-0.6,0.7-0.7h2.6c0.9,0,1.6,0.7,1.6,1.6
			c0,0,0,0,0,0v6.9c0,0.9-0.7,1.6-1.6,1.7c0,0,0,0,0,0L10.6,110.4z"/>
		<path class="st3" d="M33.9,110.4h-5.6c-0.9,0-1.7-0.7-1.7-1.7l0,0v-13c0-0.9,0.7-1.6,1.6-1.6c0,0,0,0,0,0h5.6
			c0.5,0,0.9,0.4,0.9,0.9c0,0.5-0.4,1-0.9,1H29c-0.2,0-0.3,0.1-0.3,0.3c0,0,0,0,0,0v3.5c0,0.2,0.2,0.3,0.3,0.3h4.2
			c0.5,0.2,0.8,0.7,0.7,1.3c-0.1,0.3-0.3,0.6-0.7,0.7H29c-0.2,0-0.3,0.1-0.3,0.3c0,0,0,0,0,0v5.8c0,0.2,0.2,0.3,0.3,0.3h4.9
			c0.5,0.2,0.8,0.7,0.7,1.2C34.5,110.1,34.2,110.3,33.9,110.4L33.9,110.4z"/>
		<path class="st2" d="M43.3,94.2h7.2c0.9,0,1.6,0.7,1.6,1.6c0,0,0,0,0,0v13.5c0,0.6-0.4,1-0.9,1.1c0,0,0,0-0.1,0
			c-0.6,0-1.1-0.5-1.1-1.1c0,0,0,0,0,0v-6.9c0-0.2-0.1-0.3-0.3-0.3H44c-0.2,0-0.3,0.1-0.3,0.3c0,0,0,0,0,0v6.9c0,0.6-0.4,1-1,1
			s-1-0.4-1-1V95.8C41.7,94.9,42.4,94.2,43.3,94.2z M44,100.2h5.7c0.2,0,0.3-0.1,0.3-0.3v-3.5c0-0.2-0.1-0.3-0.3-0.3H44
			c-0.2,0-0.3,0.1-0.3,0.3c0,0,0,0,0,0v3.5C43.7,100,43.8,100.2,44,100.2C44,100.2,44,100.2,44,100.2L44,100.2z"/>
		<path class="st3" d="M61,94.2c0.9,0,1.8,0.4,2.4,1l4.6,4.4c0.1,0,0.1,0,0.2,0c0,0,0-0.1,0-0.1v-4.3c0-0.6,0.4-1,1-1s1,0.4,1,1
			v14.2c0,0.6-0.4,1-1,1s-1-0.4-1-1v-6.5c0-0.2-0.1-0.4-0.3-0.6l-6.1-6c0,0-0.1-0.1-0.2,0c0,0,0,0.1,0,0.1v13c0,0.6-0.4,1-1,1
			s-1-0.4-1-1V95.6C59.6,94.8,60.2,94.2,61,94.2z"/>
		<path class="st3" d="M12.3,115.4l0.4,0.4c0.2,0.3,0.4,0.6,0.4,1v2.7l0,0l-0.9,1c-0.3,0.3-0.6,0.4-1,0.4H9.6
			c-0.3,0-0.6-0.3-0.6-0.6l0,0v-4.8c0-0.3,0.3-0.6,0.6-0.6c0,0,0,0,0,0h1.6C11.7,114.9,12,115.1,12.3,115.4z M12.3,119.2v-2.5
			c0-0.1,0-0.2-0.1-0.2l-0.6-0.7c-0.1-0.1-0.1-0.1-0.2-0.1H9.9c-0.1,0-0.1,0-0.1,0.1c0,0,0,0,0,0v4.4c0,0.1,0,0.1,0.1,0.1
			c0,0,0,0,0,0h1.4c0.1,0,0.2,0,0.2-0.1l0.7-0.8C12.3,119.3,12.3,119.2,12.3,119.2L12.3,119.2z"/>
		<path class="st3" d="M17.7,121h-2.1c-0.3,0-0.6-0.3-0.6-0.6c0,0,0,0,0,0v-4.8c0-0.3,0.3-0.6,0.6-0.6c0,0,0,0,0,0h2.1
			c0.2,0,0.3,0.2,0.3,0.3c0,0.2-0.1,0.4-0.3,0.4c0,0,0,0,0,0h-1.8c-0.1,0-0.1,0.1-0.1,0.1v1.3c0,0.1,0.1,0.1,0.1,0.1h1.6
			c0.2,0,0.3,0.2,0.3,0.4c0,0.2-0.1,0.3-0.3,0.3h-1.6c-0.1,0-0.1,0.1-0.1,0.1v2.2c0,0.1,0.1,0.1,0.1,0.1c0,0,0,0,0,0h1.8
			c0.2,0,0.3,0.2,0.3,0.4C18,120.9,17.8,121,17.7,121L17.7,121z"/>
		<path class="st3" d="M19.9,121c-0.2,0-0.3-0.2-0.3-0.4c0-0.2,0.1-0.3,0.3-0.3h2.3c0.1,0,0.1-0.1,0.1-0.1l0,0V118
			c0-0.1-0.1-0.1-0.1-0.1c0,0,0,0,0,0h-1.9c-0.3,0-0.6-0.3-0.6-0.6c0,0,0,0,0,0v-1.7c0-0.3,0.3-0.6,0.6-0.6h2.5
			c0.2,0,0.3,0.2,0.3,0.3c0,0.2-0.1,0.4-0.3,0.4c0,0,0,0,0,0h-2.2c-0.1,0-0.1,0.1-0.1,0.1c0,0,0,0,0,0v1.3c0,0.1,0.1,0.1,0.1,0.1
			c0,0,0,0,0,0h1.9c0.3,0,0.6,0.3,0.6,0.6v2.6c0,0.3-0.3,0.6-0.6,0.6c0,0,0,0,0,0L19.9,121z"/>
		<path class="st3" d="M25.8,120.6c0,0.2-0.2,0.4-0.4,0.4c-0.2,0-0.4-0.2-0.4-0.4c0,0,0,0,0,0v-5.3c0-0.2,0.2-0.4,0.4-0.4
			c0,0,0,0,0,0c0.2,0,0.4,0.2,0.4,0.4c0,0,0,0,0,0V120.6z"/>
		<path class="st3" d="M28.3,121c-0.3,0-0.6-0.3-0.6-0.6l0,0v-4.8c0-0.3,0.3-0.6,0.6-0.6c0,0,0,0,0,0H31c0.2,0,0.3,0.2,0.3,0.4
			c0,0.2-0.1,0.3-0.3,0.3h-2.5c-0.1,0-0.1,0-0.1,0.1c0,0,0,0,0,0v4.4c0,0.1,0,0.1,0.1,0.1c0,0,0,0,0,0h2c0.1,0,0.1-0.1,0.1-0.1V118
			c0-0.1,0-0.1-0.1-0.1c0,0,0,0,0,0h-0.7c-0.2,0-0.3-0.2-0.3-0.4c0-0.2,0.1-0.3,0.3-0.3h1c0.3,0,0.6,0.3,0.6,0.6v2.6
			c0,0.3-0.3,0.6-0.6,0.6c0,0,0,0,0,0L28.3,121z"/>
		<path class="st3" d="M33.8,115c0.3,0,0.7,0.1,0.9,0.4l1.7,1.6 M36.5,117v-1.6c0-0.2,0.2-0.3,0.4-0.3c0.2,0,0.3,0.2,0.3,0.3v5.3
			c0,0.2-0.2,0.3-0.4,0.3c-0.2,0-0.3-0.2-0.3-0.3v-2.4c0-0.1,0-0.2-0.1-0.2l-2.3-2.2h-0.1v4.8c0,0.2-0.2,0.3-0.4,0.3
			c-0.2,0-0.3-0.1-0.3-0.3v-5.2c0-0.3,0.2-0.5,0.5-0.5L36.5,117z"/>
		<path class="st3" d="M42.5,121c-0.2,0-0.3-0.2-0.3-0.4c0-0.2,0.1-0.3,0.3-0.3h2.2c0.1,0,0.1,0,0.1-0.1c0,0,0,0,0,0V118
			c0-0.1-0.1-0.1-0.1-0.1c0,0,0,0,0,0h-1.9c-0.3,0-0.6-0.3-0.6-0.6c0,0,0,0,0,0v-1.7c0-0.3,0.3-0.6,0.6-0.6c0,0,0,0,0,0h2.5
			c0.2,0,0.3,0.2,0.3,0.3c0,0.2-0.1,0.4-0.3,0.4c0,0,0,0,0,0H43c-0.1,0-0.1,0.1-0.1,0.1c0,0,0,0,0,0v1.3c0,0.1,0,0.1,0.1,0.1h2
			c0.3,0,0.6,0.3,0.6,0.6l0,0v2.6c0,0.3-0.2,0.6-0.6,0.6c0,0,0,0,0,0H42.5z"/>
		<path class="st3" d="M50.5,115.3c0,0.2-0.2,0.4-0.4,0.4h-0.9c-0.1,0-0.1,0-0.1,0.1c0,0,0,0,0,0v4.8c0,0.2-0.2,0.4-0.4,0.4
			c0,0,0,0,0,0c-0.2,0-0.4-0.2-0.4-0.4v-4.8c0-0.1,0-0.1-0.1-0.1c0,0,0,0,0,0h-0.9c-0.2,0-0.4-0.2-0.4-0.4s0.2-0.4,0.4-0.4h2.8
			C50.3,114.9,50.5,115.1,50.5,115.3z"/>
		<path class="st3" d="M52.5,121c-0.3,0-0.6-0.3-0.6-0.6l0,0v-5c0-0.2,0.2-0.4,0.4-0.4s0.4,0.2,0.4,0.4c0,0,0,0,0,0v4.8
			c0,0.1,0,0.1,0.1,0.1h2.1c0.1,0,0.1,0,0.1-0.1c0,0,0,0,0,0v-4.8c0-0.2,0.2-0.4,0.4-0.3c0.2,0,0.3,0.2,0.3,0.3v5
			c0,0.3-0.3,0.6-0.6,0.6l0,0H52.5z"/>
		<path class="st3" d="M61,115.4l0.4,0.4c0.3,0.3,0.4,0.6,0.4,1v2.7l0,0l-0.8,1c-0.3,0.3-0.6,0.4-1,0.4h-1.6c-0.3,0-0.6-0.3-0.6-0.6
			l0,0v-4.8c0-0.3,0.3-0.6,0.6-0.6c0,0,0,0,0,0H60C60.4,114.9,60.8,115.1,61,115.4z M61,119.2v-2.5c0-0.1,0-0.2-0.1-0.2l-0.6-0.7
			c-0.1-0.1-0.1-0.1-0.2-0.1h-1.5c-0.1,0-0.1,0.1-0.1,0.1l0,0v4.4c0,0.1,0,0.1,0.1,0.1c0,0,0,0,0,0H60c0.1,0,0.2,0,0.2-0.1l0.7-0.8
			C61,119.3,61,119.2,61,119.2z"/>
		<path class="st3" d="M64.4,120.6c0,0.2-0.2,0.4-0.4,0.4c0,0,0,0-0.1,0c-0.2,0-0.4-0.2-0.4-0.4v-5.3c0-0.2,0.2-0.3,0.4-0.3
			c0.2,0,0.4,0.2,0.4,0.4c0,0,0,0,0,0L64.4,120.6z"/>
		<path class="st3" d="M69.6,121h-2.6c-0.3,0-0.6-0.3-0.6-0.6l0,0v-4.8c0-0.3,0.3-0.6,0.6-0.6l0,0h2.6c0.3,0,0.6,0.3,0.6,0.6
			c0,0,0,0,0,0v4.8C70.2,120.7,69.9,121,69.6,121L69.6,121z M67.2,120.3h2.1c0.1,0,0.1-0.1,0.1-0.1c0,0,0,0,0,0v-4.4
			c0-0.1-0.1-0.1-0.1-0.1c0,0,0,0,0,0h-2.1c-0.1,0-0.1,0-0.1,0.1c0,0,0,0,0,0v4.4C67.1,120.2,67.1,120.3,67.2,120.3
			C67.2,120.3,67.2,120.3,67.2,120.3L67.2,120.3z"/>
	</g>
</g>
</svg>
