<?xml version="1.0" encoding="utf-8"?>
<!-- Generator: Adobe Illustrator 24.2.1, SVG Export Plug-In . SVG Version: 6.00 Build 0)  -->
<svg version="1.1" id="圖層_1" xmlns="http://www.w3.org/2000/svg" xmlns:xlink="http://www.w3.org/1999/xlink" x="0px" y="0px"
	 viewBox="0 0 151.4 38.2" style="enable-background:new 0 0 151.4 38.2;" xml:space="preserve">
<style type="text/css">
	.st0{fill:#0F1F2E;}
	.st1{fill:none;}
	.st2{fill:#56B688;}
	.st3{fill:#FDB515;}
</style>
<g id="圖層_2_1_">
	<g id="圖層_2-2">
		<circle class="st0" cx="19.1" cy="19.1" r="19.1"/>
		<path class="st1" d="M23.9,16.9c0.4,0,0.7,0.2,0.8,0.5h8.1l-7.5-3.6c-1,1.6-4.4,2-5.7,2.1v3.7c4.1,0.4,5.3,1.5,5.7,2.1l7.5-3.6h-8
			c-0.2,0.4-0.7,0.7-1.1,0.5c-0.4-0.1-0.6-0.5-0.6-0.8C23.1,17.3,23.4,16.9,23.9,16.9z"/>
		<path class="st1" d="M19.6,4.3v11c1.6-0.1,4.7-0.7,5.3-2L25,13l9,4.3C33.1,10,26.9,4.5,19.6,4.3z"/>
		<path class="st2" d="M13.8,20.2v-0.9h-2.9v2.9h2.9v-1.1h4.8V34C10.3,33.6,4,26.5,4.5,18.3C4.8,11.5,9.7,5.8,16.4,4.4v-1
			C7.7,4.8,1.8,13,3.2,21.7c1.3,7.7,8,13.4,15.8,13.3h0.5V20.2H13.8z M12.8,21.3h-1v-1h1V21.3z"/>
		<path class="st1" d="M19.6,4.3v11c1.6-0.1,4.7-0.7,5.3-2L25,13l9,4.3C33.1,10,26.9,4.5,19.6,4.3z"/>
		<path class="st1" d="M23.9,16.9c0.4,0,0.7,0.2,0.8,0.5h8.1l-7.5-3.6c-1,1.6-4.4,2-5.7,2.1v3.7c4.1,0.4,5.3,1.5,5.7,2.1l7.5-3.6h-8
			c-0.2,0.4-0.7,0.7-1.1,0.5c-0.4-0.1-0.6-0.5-0.6-0.8C23.1,17.3,23.4,16.9,23.9,16.9z"/>
		<path class="st3" d="M35,19.2c0-8.8-7.1-15.9-15.9-15.9h-0.5v16.9h1c4.8,0.5,5.2,1.9,5.2,1.9l0.1,0.4l9.1-4.3c0,0.3,0,0.7,0,1
			c0,7.2-5.2,13.4-12.2,14.7v1C29.4,33.6,35,27,35,19.2z M23.9,18.6c0.4,0,0.7-0.2,0.8-0.5h8l-7.5,3.6c-0.4-0.6-1.6-1.7-5.7-2.1
			v-3.7c1.3-0.1,4.6-0.5,5.7-2.1l7.5,3.6h-8C24.5,17,24,16.8,23.6,17s-0.7,0.7-0.5,1.1C23.2,18.4,23.6,18.6,23.9,18.6z M25,13
			l-0.1,0.3c-0.6,1.3-3.6,1.9-5.3,2v-11c7.3,0.3,13.4,5.8,14.3,13L25,13z"/>
	</g>
</g>
<g>
	<path class="st0" d="M48.2,17.4v12.7c0,1.2-1,1.7-2.1,1.5V18.7c-0.9,2.7-2.2,5.3-3.9,7c-0.3,0.3-0.6-0.1-0.4-0.3
		c1.9-3.6,3.1-7.3,3.6-11.3h-2.6c-0.4,0-0.5-0.3-1-1.4h4.4V6.7l1.6,0.3c0.3,0.1,0.5,0.2,0.5,0.4v5.2h1.5c0.5,0,0.8-0.2,1.2-0.8
		c0.6,0.6,1,0.9,1,1.3c0,0.6-0.5,0.9-1.4,0.9h-2.3v2c1.3,0.8,2.3,1.4,3,2.4c1,1.5-0.6,3.1-1.4,1.7C49,18.9,48.6,18.1,48.2,17.4z
		 M66.5,20.8c-1.8,1.2-1.8,1.4-2.7,1c-1.9-0.9-3.6-2-5.5-3.8c-1.2,1.2-2.8,2.3-4.6,3.2l0.9,0.2c0.2,0.1,0.4,0.2,0.4,0.3h4.8
		c0.5,0,0.8-0.2,1.2-0.6l1.8,0.6c1.1,0.4,0.4,1,0.4,1.5v6.8c0,1.1-1,1.6-2.1,1.3v-1.8h-5.9v0.5c0,1.3-1.1,1.7-2.1,1.5v-9.8
		c-1.2,0.5-2.5,1-3.8,1.3c-0.4,0.1-0.6-0.3-0.2-0.5c3.3-1.6,6-3.4,8.2-5.7c-0.9-1.1-1.7-2.2-2.5-3.8c-0.8,1.2-2,2.5-3.5,3.6
		c-0.4,0.3-0.7,0-0.4-0.4c1.3-1.7,2.1-3.1,2.8-4.7c0.7-1.5,1.4-3.4,1.8-4.8l1.4,0.7c0.6,0.3,0.6,0.4,0.4,0.9c-0.2,0.4-0.5,1-0.8,1.6
		h3.9c0.5,0,0.8-0.1,1.1-0.4l1.2,0.9c0.5,0.4,0.6,0.5,0.4,1.1c-0.7,1.4-1.6,3.1-3.4,5.3c2,1.6,4.1,2.8,6.9,3.6
		C66.7,20.5,66.8,20.7,66.5,20.8z M55.2,23.2v4.9h5.9v-4.9H55.2z M55.7,11.4l-0.3,0.5c1,1.6,1.7,2.5,2.9,3.6
		c1.2-1.5,1.9-2.8,2.5-4.2H55.7z"/>
	<path class="st0" d="M93.5,18c0,0.7-0.5,1-1.6,1h-4.5c-0.5,2.1-1.6,4.7-3.1,6.5c2.3,0.9,4.3,1.9,5.7,2.8c2.1,1.4,1.7,4.5-1.3,2.2
		c-1.6-1.2-3.8-2.6-5.8-3.7c-2.4,2.1-6.1,4.1-11.8,4.5c-0.7,0.1-0.5-0.5-0.2-0.6c4.7-1.3,8-2.9,10.2-4.9c-1.5-0.8-2.9-1.4-3.9-1.8
		c-0.5,0.8-0.9,1-1.5,1.1c-0.5,0.1-1-0.2-1.6-0.5c1-1.2,2.1-3.4,3.2-5.7h-6.7c-0.6,0-0.7-0.2-1.2-1.5h8.5c0.8-1.9,1.5-3.8,1.9-5.2
		l1.3,0.6c0.7,0.3,0.8,0.5,0.6,1c-0.3,1-0.8,2.2-1.4,3.6h10.7c0.5,0,0.8-0.3,1.4-1C93,17.3,93.5,17.6,93.5,18z M70.8,12.9
		c1-1,2-2.2,2.4-3.6c0.1-0.3,0.6-0.2,0.6,0v0.7h7.7c-0.2-0.1-0.5-0.4-0.7-0.7c-0.5-0.7-1.1-1.6-1.7-2.3c-0.2-0.3-0.1-0.5,0.3-0.5
		C80.8,7,81.9,7.3,82.6,8c0.7,0.7,0.6,1.7,0.1,2.1H89c0.6,0,0.9-0.2,1.4-0.6l1.3,1.1c0.6,0.5,0.5,0.8,0.2,1.1
		c-1,0.8-2.4,2.1-3.2,2.6c-0.3,0.2-0.6,0-0.4-0.4c0.3-0.6,0.7-1.5,1-2.3H73.7c-0.1,0.7-0.2,1.4-0.4,1.8C72,15.9,69.5,14.3,70.8,12.9
		z M84.9,19h-5.3c-0.7,1.6-1.5,3.1-2.1,4.2c1.2,0.3,2.8,0.8,4.6,1.5C83.1,23.5,84.3,21.5,84.9,19z"/>
	<path class="st0" d="M105.3,13h-7.9c-0.5,0-0.6-0.3-1-1.5h8c0.5,0,0.8-0.3,1.3-0.8c0.6,0.7,1,0.9,1,1.4
		C106.7,12.7,106.2,13,105.3,13z M97.5,15.2h5.6c0.5,0,0.8-0.2,1.3-0.8c0.7,0.7,1,1,1,1.3c0,0.7-0.5,0.9-1.4,0.9h-5.6
		C98.1,16.6,98,16.4,97.5,15.2z M97.6,18.7h5.6c0.5,0,0.7-0.2,1.3-0.8c0.7,0.6,1,1,1,1.3c0,0.6-0.5,0.9-1.4,0.9h-5.4
		C98.2,20.1,98.1,19.8,97.6,18.7z M103.3,30.6v-1.3h-3.3v0.4c0,1.3-0.9,1.7-2.1,1.5v-9.3l1.7,0.4c0.3,0.1,0.4,0.2,0.5,0.4h2.1
		c0.5,0,0.8-0.1,1.2-0.6l1.8,0.6c1,0.3,0.4,0.9,0.4,1.5v5C105.5,30.4,104.6,30.7,103.3,30.6z M99.6,7.1c-0.1-0.3,0.1-0.5,0.4-0.4
		c1.2,0.7,2.3,1.5,2.7,2.2c0.9,1.5-0.7,3.2-1.8,1.3C100.5,9.5,100,8,99.6,7.1z M103.3,27.8v-3.8h-3.3v3.8H103.3z M120.9,30.3
		c-1.5,1.2-1.6,1.4-2.7,0.9c-1.8-0.8-3.7-2-5.2-3.5c-2.1,1.8-4.8,3.1-7.8,3.8c-0.5,0.1-0.6-0.4-0.2-0.5c2.1-0.8,4.9-2.5,6.8-4.5
		c-1.5-1.9-2.3-4.2-2.8-6.6h-1.2c-0.4,0-0.6-0.5-1-1.4h8.7c0.5,0,0.8-0.1,1.1-0.4l1.1,0.9c0.5,0.4,0.5,0.6,0.3,1.1
		c-0.8,2.1-2.1,4.5-3.7,6.4c1.8,1.5,4,2.8,6.5,3.6C121.1,30,121.1,30.1,120.9,30.3z M108,14.8c0.5-1.1,0.6-2.3,0.6-3.7
		c0-0.9,0-2,0-3.8l1.6,0.4c0.4,0.1,0.5,0.2,0.5,0.4h2.4c0.4,0,0.8-0.2,1.2-0.6l1.9,0.6c1,0.3,0.3,1,0.3,1.5v3.9c0,1.2,0,1.4,0.7,1.4
		c1.4,0.1,1.6-0.1,1.8-0.5l0.2-0.4c0.1-0.2,0.3-0.2,0.4,0c0.3,0.5,0.5,0.8,0.9,1.1c0.4,0.3,0.4,1-0.1,1.3c-0.6,0.4-1.8,0.5-2.9,0.5
		c-3.1-0.1-3.2-0.5-3.2-4.1V9.5h-3.6v1.6c0,1.6-0.5,3.2-1.1,4.2c-0.8,1.3-2.4,2.4-3.8,2.9c-0.4,0.1-0.6-0.2-0.3-0.5
		C106.6,16.9,107.6,15.8,108,14.8z M110.1,19.8c0.7,2,1.3,3.7,2.8,5.2c1.2-1.7,2.2-3.5,2.8-5.2H110.1z"/>
	<path class="st0" d="M124.7,13.2c-0.5,0-0.5-0.3-1-1.5h8.4c0.5,0,0.7-0.2,1.3-0.8c0.7,0.6,1.1,1,1.1,1.3c0,0.7-0.6,1-1.5,1H124.7z
		 M133.4,15.7c0,0.6-0.6,0.9-1.5,0.9h-6.2c-0.4,0-0.5-0.3-1-1.4h6.4c0.5,0,0.7-0.2,1.2-0.8C133,15.1,133.4,15.4,133.4,15.7z
		 M133.4,19.2c0,0.6-0.5,0.9-1.4,0.9h-6.2c-0.4,0-0.5-0.3-1-1.4h6.4c0.5,0,0.7-0.2,1.2-0.8C133,18.4,133.4,18.8,133.4,19.2z
		 M133.1,23.9v5.3c0,1.3-1,1.6-2.2,1.5V29h-3.6v0.5c0,1.5-1.4,1.6-2.2,1.5v-9.3l1.7,0.3c0.3,0.1,0.5,0.2,0.5,0.4h2.4
		c0.5,0,0.8-0.2,1.2-0.7l1.7,0.5C133.8,22.7,133.1,23.4,133.1,23.9z M126.8,7.1c-0.2-0.3,0.1-0.6,0.4-0.4c1.1,0.5,2.4,1.5,2.8,2.2
		c1,1.8-0.7,3.6-1.8,1.3C127.9,9.4,127.1,7.8,126.8,7.1z M130.9,27.6v-3.8h-3.6v3.8H130.9z M148.4,16.3c0,0.6-0.6,0.9-1.5,0.9h-4.7
		V30c0,1.3-1.2,1.6-2.2,1.5V17.2h-4.7c-0.5,0-0.7-0.4-1.2-1.5h5.9v-9l1.8,0.4c0.4,0.1,0.5,0.2,0.5,0.3v8.3h3.9
		c0.5,0,0.8-0.3,1.2-0.8C147.8,15.5,148.4,15.9,148.4,16.3z"/>
</g>
</svg>
